<?xml version="1.0" encoding="UTF-8" standalone="no"?>
<!-- Created with Inkscape (http://www.inkscape.org/) -->

<svg
   xmlns:dc="http://purl.org/dc/elements/1.1/"
   xmlns:cc="http://creativecommons.org/ns#"
   xmlns:rdf="http://www.w3.org/1999/02/22-rdf-syntax-ns#"
   xmlns:svg="http://www.w3.org/2000/svg"
   xmlns="http://www.w3.org/2000/svg"
   xmlns:sodipodi="http://sodipodi.sourceforge.net/DTD/sodipodi-0.dtd"
   xmlns:inkscape="http://www.inkscape.org/namespaces/inkscape"
   version="1.1"
   id="svg88"
   width="549.44"
   height="138.88"
   viewBox="0 0 549.44 138.88"
   sodipodi:docname="listify-logo.svg"
   inkscape:version="0.92.5 (2060ec1f9f, 2020-04-08)">
  <metadata
     id="metadata94">
    <rdf:RDF>
      <cc:Work
         rdf:about="">
        <dc:format>image/svg+xml</dc:format>
        <dc:type
           rdf:resource="http://purl.org/dc/dcmitype/StillImage" />
        <dc:title></dc:title>
      </cc:Work>
    </rdf:RDF>
  </metadata>
  <defs
     id="defs92" />
  <sodipodi:namedview
     pagecolor="#ffffff"
     bordercolor="#666666"
     borderopacity="1"
     objecttolerance="10"
     gridtolerance="10"
     guidetolerance="10"
     inkscape:pageopacity="0"
     inkscape:pageshadow="2"
     inkscape:window-width="1920"
     inkscape:window-height="1010"
     id="namedview90"
     showgrid="false"
     inkscape:zoom="3.1304601"
     inkscape:cx="274.72"
     inkscape:cy="69.440002"
     inkscape:window-x="0"
     inkscape:window-y="0"
     inkscape:window-maximized="1"
     inkscape:current-layer="svg88" />
  <path
     style="fill:#000000;stroke-width:0.31999999"
     d="m 421.67371,138.87372 c -1.01513,-0.16098 -2.41913,-0.4471 -3.12,-0.63582 l -1.27427,-0.34313 v -7.66766 -7.66767 h 3.18426 c 5.39081,0 7.86489,-0.8033 10.16739,-3.30122 1.5495,-1.68101 2.12115,-2.76709 3.74848,-7.12191 l 1.20441,-3.22314 -13.15225,-37.679603 c -7.23376,-20.72378 -13.15229,-37.743284 -13.15229,-37.821121 0,-0.07783 4.85856,-0.103603 10.79683,-0.05726 l 10.79683,0.08426 6.89572,23.105871 c 3.79264,12.70824 6.96204,23.17053 7.04316,23.24955 0.0811,0.079 3.25079,-10.31862 7.04375,-23.10587 l 6.89629,-23.249556 10.81961,-0.0843 c 8.61079,-0.06709 10.78883,-0.0016 10.66899,0.32 -0.0828,0.222365 -6.95724,19.988301 -15.27644,43.924306 -8.40205,24.174223 -15.81424,44.988743 -16.6744,46.824073 -3.53456,7.54169 -8.11722,11.78358 -14.84631,13.74231 -2.91433,0.84833 -8.69264,1.19586 -11.76976,0.70789 z M 71.062744,109.99944 c 1.402141,-4.092 9.801495,-28.824003 18.665232,-54.960003 l 16.115884,-47.5199955 7.50491,-0.08567 7.50492,-0.08567 -17.22557,50.8056685 c -9.474054,27.94311 -17.890486,52.71366 -18.703171,55.04566 l -1.477609,4.24 h -7.46697 -7.466973 z m 157.896696,-0.283 c -9.75318,-1.22802 -18.23299,-6.03056 -22.85811,-12.945683 -1.80365,-2.69669 -2.77157,-5.08079 -3.4101,-8.39947 -0.76985,-4.00122 -1.86433,-3.57185 9.10472,-3.57185 h 9.5565 l 0.20135,1.469 c 0.46097,3.3632 2.53914,6.20815 5.68216,7.77874 2.69715,1.34778 4.93753,1.72862 9.23235,1.56939 3.20035,-0.11865 3.95975,-0.25823 5.71138,-1.04978 3.40038,-1.53658 5.28605,-4.65181 4.70687,-7.77599 -0.74651,-4.02683 -3.91478,-5.74697 -16.07655,-8.72838 -10.68086,-2.61837 -16.27753,-5.24229 -20.7403,-9.7238 -4.02202,-4.03892 -5.43377,-7.8311 -5.18927,-13.939176 0.22703,-5.671395 1.93981,-9.573251 5.98888,-13.643206 5.39422,-5.422045 12.32523,-8.17314 21.77012,-8.641121 18.50493,-0.916895 32.43164,8.114356 33.50015,21.724327 l 0.19471,2.479996 h -10.08266 -10.08266 l -0.17743,-1.719164 c -0.32756,-3.173728 -2.25091,-5.763798 -5.33371,-7.182605 -2.31878,-1.067184 -6.91986,-1.336665 -9.87889,-0.578598 -6.59857,1.690477 -8.92172,8.295307 -4.33716,12.330787 1.84978,1.62825 5.20781,2.84427 11.99044,4.342 2.88597,0.63727 6.25521,1.44629 7.48721,1.79781 12.16937,3.47219 18.39197,8.82394 20.13404,17.31628 3.21824,15.68852 -10.53725,27.664753 -31.48565,27.413013 -1.85261,-0.0223 -4.37639,-0.1674 -5.60839,-0.32252 z m 71.84,0.15488 c -7.16164,-0.95932 -12.23642,-4.19698 -14.80758,-9.44712 -2.36996,-4.839283 -2.26648,-3.570283 -2.38947,-29.304763 l -0.1105,-23.119996 h -5.58622 -5.58623 v -7.36 -7.36 h 5.6 5.6 v -9.28 -9.28 h 9.92 9.92 v 9.28 9.28 h 6.56 6.56 v 7.353373 7.353376 l -6.48,0.08662 -6.48,0.08663 v 19.839997 c 0,21.99984 0.01,22.11996 1.95864,23.831 1.57201,1.38025 3.20837,1.7056 7.72136,1.53522 l 3.92,-0.148 v 7.586913 7.5869 l -3.28,0.70806 c -3.21996,0.6951 -10.42778,1.1217 -13.04,0.77179 z m -169.28,-54.671883 V 1.5994415 h 10.24 10.24 V 55.199437 108.79944 h -10.24 -10.24 z m 37.76,15.84 V 33.279441 h 10.24 10.24 v 37.759996 37.760003 h -10.24 -10.24 z m 159.36,0 V 33.279441 h 10.24 10.24 v 37.759996 37.760003 h -10.24 -10.24 z m 42.24,7.36 V 47.999441 h -5.6 -5.6 v -7.36 -7.36 h 5.55005 5.55005 l 0.19622,-5.36 c 0.33984,-9.282132 1.78608,-14.099985 5.61718,-18.7122845 6.12122,-7.36936 17.22896,-10.39486 29.59546,-8.061124 l 2.82899,0.533868 -0.22841,7.719771 c -0.12564,4.2458725 -0.25364,7.7507475 -0.28448,7.7886095 -0.0307,0.03786 -1.05709,-0.088 -2.28058,-0.279704 -4.40614,-0.690377 -9.27622,0.165527 -11.77158,2.068825 -2.34359,1.787525 -3.40426,5.464242 -3.41047,11.822039 l -0.003,2.48 h 7.52 7.52 v 7.354102 7.354103 l -7.44,0.0859 -7.44,0.0859 -0.0816,30.320001 -0.0816,30.320003 H 380.95704 370.87867 V 78.399437 Z M 30.479442,86.458167 0.63944182,73.830347 v -8.22819 -8.22819 L 30.479442,44.742433 l 29.84,-12.631533 0.08476,9.592839 c 0.04662,5.27606 0.01805,9.659542 -0.06347,9.741072 -0.08153,0.08153 -8.327673,3.08238 -18.324765,6.668566 -21.433076,7.68853 -20.971264,7.518 -20.806176,7.68309 0.07108,0.0711 8.870942,3.20694 19.555242,6.96857 10.684301,3.76164 19.493034,6.90637 19.574966,6.9883 0.08193,0.0819 0.11082,4.46529 0.0642,9.74081 l -0.08476,9.59183 z m 458.479998,3.05022 v -9.69106 l 19.76,-6.986 c 10.868,-3.8423 19.95168,-7.08958 20.18595,-7.21619 0.24797,-0.13401 -4.89974,-2.08555 -12.32,-4.67063 -7.01027,-2.44224 -16.05795,-5.59915 -20.10595,-7.015354 l -7.36,-2.574918 -0.0847,-9.699204 c -0.0466,-5.33456 0.0253,-9.638492 0.16,-9.564293 0.13463,0.0742 13.81911,5.805951 30.40999,12.737225 l 30.16525,12.602324 -0.0853,8.16458 -0.0852,8.16457 -30.24,12.70727 c -16.632,6.98899 -30.276,12.71299 -30.32,12.72 -0.044,0.007 -0.08,-4.34824 -0.08,-9.67832 z M 175.97683,23.902349 c -3.42685,-0.971927 -5.8643,-3.149565 -7.05491,-6.302908 -0.93383,-2.473257 -0.73774,-6.204254 0.44775,-8.5194705 1.78905,-3.49395 5.55217,-5.560529 10.1254,-5.560529 6.55286,0 10.82946,3.743453 11.15002,9.7599995 0.24229,4.547629 -1.63421,7.868125 -5.53046,9.786244 -1.73106,0.852197 -2.50408,1.032056 -4.86657,1.132308 -1.70188,0.07222 -3.38496,-0.04428 -4.27123,-0.295644 z m 159.35999,0 c -3.42685,-0.971927 -5.86429,-3.149565 -7.05488,-6.302908 -0.93386,-2.473257 -0.73776,-6.204254 0.44774,-8.5194705 1.78902,-3.49395 5.55216,-5.560529 10.12538,-5.560529 6.55286,0 10.82947,3.743453 11.15001,9.7599995 0.24231,4.547629 -1.63417,7.868125 -5.53043,9.786244 -1.73107,0.852197 -2.5041,1.032056 -4.86659,1.132308 -1.70186,0.07222 -3.38496,-0.04428 -4.27123,-0.295644 z"
     id="path98"
     inkscape:connector-curvature="0" />
</svg>
