<svg id="visual" viewBox="0 0 1920 1200" width="1920" height="1200" xmlns="http://www.w3.org/2000/svg" xmlns:xlink="http://www.w3.org/1999/xlink" version="1.1"><rect x="0" y="0" width="1920" height="1200" fill="#001220"></rect><defs><linearGradient id="grad1_0" x1="37.5%" y1="0%" x2="100%" y2="100%"><stop offset="17.999999999999996%" stop-color="#8338ec" stop-opacity="1"></stop><stop offset="82%" stop-color="#8338ec" stop-opacity="1"></stop></linearGradient></defs><defs><linearGradient id="grad1_1" x1="37.5%" y1="0%" x2="100%" y2="100%"><stop offset="17.999999999999996%" stop-color="#8338ec" stop-opacity="1"></stop><stop offset="82%" stop-color="#2840c2" stop-opacity="1"></stop></linearGradient></defs><defs><linearGradient id="grad1_2" x1="37.5%" y1="0%" x2="100%" y2="100%"><stop offset="17.999999999999996%" stop-color="#00378e" stop-opacity="1"></stop><stop offset="82%" stop-color="#2840c2" stop-opacity="1"></stop></linearGradient></defs><defs><linearGradient id="grad1_3" x1="37.5%" y1="0%" x2="100%" y2="100%"><stop offset="17.999999999999996%" stop-color="#00378e" stop-opacity="1"></stop><stop offset="82%" stop-color="#002755" stop-opacity="1"></stop></linearGradient></defs><defs><linearGradient id="grad1_4" x1="37.5%" y1="0%" x2="100%" y2="100%"><stop offset="17.999999999999996%" stop-color="#001220" stop-opacity="1"></stop><stop offset="82%" stop-color="#002755" stop-opacity="1"></stop></linearGradient></defs><defs><linearGradient id="grad2_0" x1="0%" y1="0%" x2="62.5%" y2="100%"><stop offset="17.999999999999996%" stop-color="#8338ec" stop-opacity="1"></stop><stop offset="82%" stop-color="#8338ec" stop-opacity="1"></stop></linearGradient></defs><defs><linearGradient id="grad2_1" x1="0%" y1="0%" x2="62.5%" y2="100%"><stop offset="17.999999999999996%" stop-color="#2840c2" stop-opacity="1"></stop><stop offset="82%" stop-color="#8338ec" stop-opacity="1"></stop></linearGradient></defs><defs><linearGradient id="grad2_2" x1="0%" y1="0%" x2="62.5%" y2="100%"><stop offset="17.999999999999996%" stop-color="#2840c2" stop-opacity="1"></stop><stop offset="82%" stop-color="#00378e" stop-opacity="1"></stop></linearGradient></defs><defs><linearGradient id="grad2_3" x1="0%" y1="0%" x2="62.5%" y2="100%"><stop offset="17.999999999999996%" stop-color="#002755" stop-opacity="1"></stop><stop offset="82%" stop-color="#00378e" stop-opacity="1"></stop></linearGradient></defs><defs><linearGradient id="grad2_4" x1="0%" y1="0%" x2="62.5%" y2="100%"><stop offset="17.999999999999996%" stop-color="#002755" stop-opacity="1"></stop><stop offset="82%" stop-color="#001220" stop-opacity="1"></stop></linearGradient></defs><g transform="translate(1920, 0)"><path d="M0 905.7C-121.7 891.7 -243.4 877.7 -342.1 825.9C-440.8 774.2 -516.5 684.6 -602.5 602.5C-688.4 520.3 -784.5 445.7 -836.7 346.6C-889 247.4 -897.3 123.7 -905.7 0L0 0Z" fill="#001d3a"></path><path d="M0 724.5C-97.4 713.4 -194.7 702.2 -273.7 660.8C-352.7 619.3 -413.2 547.6 -482 482C-550.7 416.3 -627.6 356.6 -669.4 277.3C-711.2 197.9 -717.8 99 -724.5 0L0 0Z" fill="#003071"></path><path d="M0 543.4C-73 535 -146 526.6 -205.3 495.6C-264.5 464.5 -309.9 410.7 -361.5 361.5C-413 312.2 -470.7 267.4 -502 207.9C-533.4 148.5 -538.4 74.2 -543.4 0L0 0Z" fill="#003da9"></path><path d="M0 362.3C-48.7 356.7 -97.4 351.1 -136.8 330.4C-176.3 309.7 -206.6 273.8 -241 241C-275.3 208.1 -313.8 178.3 -334.7 138.6C-355.6 99 -358.9 49.5 -362.3 0L0 0Z" fill="#583fd9"></path><path d="M0 181.1C-24.3 178.3 -48.7 175.5 -68.4 165.2C-88.2 154.8 -103.3 136.9 -120.5 120.5C-137.7 104.1 -156.9 89.1 -167.3 69.3C-177.8 49.5 -179.5 24.7 -181.1 0L0 0Z" fill="#8338ec"></path></g><g transform="translate(0, 1200)"><path d="M0 -905.7C121.2 -896 242.5 -886.3 346.6 -836.7C450.7 -787.1 537.7 -697.6 606 -606C674.2 -514.3 723.7 -420.5 770.5 -319.2C817.3 -217.8 861.5 -108.9 905.7 0L0 0Z" fill="#001d3a"></path><path d="M0 -724.5C97 -716.8 194 -709 277.3 -669.4C360.6 -629.7 430.2 -558.1 484.8 -484.8C539.4 -411.5 579 -336.4 616.4 -255.3C653.9 -174.2 689.2 -87.1 724.5 0L0 0Z" fill="#003071"></path><path d="M0 -543.4C72.7 -537.6 145.5 -531.8 207.9 -502C270.4 -472.3 322.6 -418.6 363.6 -363.6C404.5 -308.6 434.2 -252.3 462.3 -191.5C490.4 -130.7 516.9 -65.3 543.4 0L0 0Z" fill="#003da9"></path><path d="M0 -362.3C48.5 -358.4 97 -354.5 138.6 -334.7C180.3 -314.9 215.1 -279.1 242.4 -242.4C269.7 -205.7 289.5 -168.2 308.2 -127.7C326.9 -87.1 344.6 -43.6 362.3 0L0 0Z" fill="#583fd9"></path><path d="M0 -181.1C24.2 -179.2 48.5 -177.3 69.3 -167.3C90.1 -157.4 107.5 -139.5 121.2 -121.2C134.8 -102.9 144.7 -84.1 154.1 -63.8C163.5 -43.6 172.3 -21.8 181.1 0L0 0Z" fill="#8338ec"></path></g></svg>